# xmcd
#
# Track frame offsets:
#	182
#	23932
#	39455
#	57905
#	74030
#	93080
#	109205
#	131482
#	153827
#	172355
#	189380
#	203327
#	223355
#	246455
#	262657
#	280430
#
# Disc length: 4022 seconds
#
# Revision: 1
# Processed by: cddbd v1.5.2PL0 Copyright (c) Steve Scherf et al.
# Submitted via: audiograbber 1.83.01
#
DISCID=ef0fb410
DTITLE=Various Artist - The 1998 Muster Blues Collection
DYEAR=1998
DGENRE=Blues
TTITLE0=Chain - Chain
TTITLE1=Steve Lott Band - Pink Satin Sheets
TTITLE2=Doc Span and Ross Williams - The Last Train
TTITLE3=Michelle Brown and The Big Easy - You Can Have My Husband
TTITLE4=Damon Davies - Hesitation
TTITLE5=Lawrie Minson - Slaggett's Woods
TTITLE6=Greg Baker - Low Down and Dirty
TTITLE7=The Lowdown - The Lowdown
TTITLE8=Carl Lynch - Lucky Man
TTITLE9=Jane Michele - Secret Keeper
TTITLE10=Hipshooters - Freedom
TTITLE11=Lil' Fi - Pope Joan
TTITLE12=Marco Goldsmith - Gonna Burn
TTITLE13=Buzz 'n' The Blues Band - Headgames
TTITLE14=Phil Manning - Just Eighteen
TTITLE15=Chris Finnen - Boa Constrictor
EXTD=
EXTT0=
EXTT1=
EXTT2=
EXTT3=
EXTT4=
EXTT5=
EXTT6=
EXTT7=
EXTT8=
EXTT9=
EXTT10=
EXTT11=
EXTT12=
EXTT13=
EXTT14=
EXTT15=
PLAYORDER=
